<?xml version="1.0" standalone="no"?>
<!DOCTYPE svg PUBLIC "-//W3C//DTD SVG 20010904//EN"
 "http://www.w3.org/TR/2001/REC-SVG-20010904/DTD/svg10.dtd">
<svg version="1.0" xmlns="http://www.w3.org/2000/svg"
 width="225.000000pt" height="225.000000pt" viewBox="0 0 225.000000 225.000000"
 preserveAspectRatio="xMidYMid meet">

<g transform="translate(0.000000,225.000000) scale(0.100000,-0.100000)"
fill="#000000" stroke="none">
<path d="M1148 2233 c18 -2 45 -2 60 0 15 2 0 4 -33 4 -33 0 -45 -2 -27 -4z"/>
<path d="M968 2223 c6 -2 18 -2 25 0 6 3 1 5 -13 5 -14 0 -19 -2 -12 -5z"/>
<path d="M1263 2223 c9 -2 23 -2 30 0 6 3 -1 5 -18 5 -16 0 -22 -2 -12 -5z"/>
<path d="M1338 2213 c7 -3 16 -2 19 1 4 3 -2 6 -13 5 -11 0 -14 -3 -6 -6z"/>
<path d="M1425 2190 c27 -12 43 -12 25 0 -8 5 -22 9 -30 9 -10 0 -8 -3 5 -9z"/>
<path d="M1567 2139 c7 -7 15 -10 18 -7 3 3 -2 9 -12 12 -14 6 -15 5 -6 -5z"/>
<path d="M650 2130 c-8 -5 -10 -10 -5 -10 6 0 17 5 25 10 8 5 11 10 5 10 -5 0
-17 -5 -25 -10z"/>
<path d="M1617 2119 c7 -7 15 -10 18 -7 3 3 -2 9 -12 12 -14 6 -15 5 -6 -5z"/>
<path d="M600 2105 c-14 -8 -20 -14 -14 -15 5 0 19 7 30 15 24 18 16 19 -16 0z"/>
<path d="M504 2045 c-10 -8 -14 -15 -8 -15 6 0 17 7 24 15 16 19 9 19 -16 0z"/>
<path d="M1746 2042 c-3 -5 1 -9 9 -9 8 0 12 4 9 9 -3 4 -7 8 -9 8 -2 0 -6 -4
-9 -8z"/>
<path d="M414 1975 c-13 -11 -14 -13 -3 -9 10 3 19 -1 22 -10 4 -9 12 -16 18
-16 8 0 6 7 -4 18 -10 10 -14 22 -10 25 12 13 -3 7 -23 -8z"/>
<path d="M399 1933 c-13 -16 -12 -17 4 -4 9 7 17 15 17 17 0 8 -8 3 -21 -13z"/>
<path d="M344 1908 l-19 -23 23 19 c21 18 27 26 19 26 -2 0 -12 -10 -23 -22z"/>
<path d="M1890 1924 c0 -12 50 -58 56 -52 2 3 -10 17 -26 33 -17 16 -30 24
-30 19z"/>
<path d="M299 1863 c-13 -16 -12 -17 4 -4 9 7 17 15 17 17 0 8 -8 3 -21 -13z"/>
<path d="M260 1825 c-8 -9 -8 -15 -2 -15 12 0 26 19 19 26 -2 2 -10 -2 -17
-11z"/>
<path d="M2015 1779 c-4 -6 -5 -12 -2 -15 2 -3 7 2 10 11 7 17 1 20 -8 4z"/>
<path d="M220 1711 c0 -6 4 -13 10 -16 6 -3 7 1 4 9 -7 18 -14 21 -14 7z"/>
<path d="M176 1702 c-3 -5 1 -9 9 -9 8 0 12 4 9 9 -3 4 -7 8 -9 8 -2 0 -6 -4
-9 -8z"/>
<path d="M785 1700 c3 -5 8 -10 11 -10 2 0 4 5 4 10 0 6 -5 10 -11 10 -5 0 -7
-4 -4 -10z"/>
<path d="M136 1633 c-6 -14 -5 -15 5 -6 7 7 10 15 7 18 -3 3 -9 -2 -12 -12z"/>
<path d="M120 1599 c0 -5 5 -7 10 -4 6 3 10 8 10 11 0 2 -4 4 -10 4 -5 0 -10
-5 -10 -11z"/>
<path d="M516 1588 c3 -5 10 -6 15 -3 13 9 11 12 -6 12 -8 0 -12 -4 -9 -9z"/>
<path d="M106 1565 c-9 -26 -7 -32 5 -12 6 10 9 21 6 23 -2 3 -7 -2 -11 -11z"/>
<path d="M2140 1571 c0 -6 4 -13 10 -16 6 -3 7 1 4 9 -7 18 -14 21 -14 7z"/>
<path d="M485 1544 c-9 -15 -12 -23 -6 -20 11 7 35 46 28 46 -3 0 -12 -12 -22
-26z"/>
<path d="M1412 1550 c7 -11 17 -20 22 -20 5 0 1 9 -9 20 -10 11 -20 20 -22 20
-2 0 2 -9 9 -20z"/>
<path d="M461 1484 c0 -11 3 -14 6 -6 3 7 2 16 -1 19 -3 4 -6 -2 -5 -13z"/>
<path d="M61 1443 c-1 -6 -4 -20 -7 -30 -5 -17 -5 -17 6 0 6 10 9 23 6 30 -3
9 -5 9 -5 0z"/>
<path d="M1443 1410 c0 -25 2 -35 4 -22 2 12 2 32 0 45 -2 12 -4 2 -4 -23z"/>
<path d="M2196 1417 c3 -10 9 -15 12 -12 3 3 0 11 -7 18 -10 9 -11 8 -5 -6z"/>
<path d="M41 1368 c0 -9 -4 -25 -7 -35 -5 -17 -5 -17 6 0 6 10 9 25 7 35 -4
15 -5 15 -6 0z"/>
<path d="M2222 1315 c0 -16 2 -22 5 -12 2 9 2 23 0 30 -3 6 -5 -1 -5 -18z"/>
<path d="M21 1244 c0 -11 3 -14 6 -6 3 7 2 16 -1 19 -3 4 -6 -2 -5 -13z"/>
<path d="M1443 1224 c1 -23 5 -30 15 -27 8 4 10 8 4 12 -5 3 -12 15 -15 26 -3
12 -5 7 -4 -11z"/>
<path d="M1500 1232 c0 -5 7 -9 15 -9 8 0 12 4 9 9 -3 4 -9 8 -15 8 -5 0 -9
-4 -9 -8z"/>
<path d="M1563 1233 c9 -2 23 -2 30 0 6 3 -1 5 -18 5 -16 0 -22 -2 -12 -5z"/>
<path d="M1638 1233 c7 -3 16 -2 19 1 4 3 -2 6 -13 5 -11 0 -14 -3 -6 -6z"/>
<path d="M1755 1200 c3 -5 8 -10 11 -10 2 0 4 5 4 10 0 6 -5 10 -11 10 -5 0
-7 -4 -4 -10z"/>
</g>
</svg>
